:SAMPLES-PER-SECOND 30
:FULLY-SPECIFIED
:DEGREES
27
root  34.85402986 36.55508447 -14.45146245 9.253263474 -5.008708954 3.306944847
lowerback  -7.978889942 -0.7589995861 -0.631803453
upperback  -3.922460079 -0.5068073273 -3.220880032
thorax  0.3953469992 -0.1040357202 -3.009500027
lowerneck  -7.145720005 -13.41930008 -10.38259983
upperneck  12.83279991 -18.27070236 10.36170006
head  7.005410194 -8.543439865 3.195749998
lclavicle  0 -4.497500157e-015 -2.743230041e-014
lhumerus  -47.97800064 29.45960045 64.28209686
lradius  0.006620147731 -6.507048965e-006 30.35209846
lwrist  4.824992743e-007 -3.790274832e-007 -27.70439911
lhand  -3.519128829e-031 -36.95059967 -10.63599968
lfingers  90 7.125020027 -90
lthumb  94.83142853 -25.47070885 101.1195602
rclavicle  0 -4.497500157e-015 -2.743230041e-014
rhumerus  -56.12549973 -34.01160049 -54.43610001
rradius  -5.16745672e-007 2.214343908e-008 46.04190063
rwrist  -2.867388866e-005 0.1017204151 -155.3990021
rhand  -3.020376775e-031 -2.507760048 -7.639910221
rfingers  -90 -7.125020027 -90
rthumb  -86.53787994 -8.025252342 -66.57076263
rfemur  -11.62638092 15.78801823 12.74586201
rtibia  -0.4097678959 -0.9978672266 19.02023506
rfoot  1.170122147 -21.63812637 -35.30192184
rtoes  4.050399303 19.60589027 -101.9184799
lfemur  -6.532313824 -16.22542953 -20.97595215
ltibia  4.045345783 -0.3875626922 12.06839848
lfoot  0.6525910497 -23.26762962 36.91149902
ltoes  -8.712032318 -18.07314301 -116.2867584
28
root  34.85361835 36.55491326 -14.45046973 9.245738029 -5.002632141 3.305763245
lowerback  -7.966849804 -0.7599509358 -0.6206086874
upperback  -3.935029984 -0.5086089969 -3.231309891
thorax  0.3754340112 -0.105967328 -3.026520014
lowerneck  -7.108739853 -13.4435997 -10.44859982
upperneck  12.78110027 -18.30649948 10.42959976
head  6.999380112 -8.561579704 3.224129915
lclavicle  0 -4.497500157e-015 -2.743230041e-014
lhumerus  -47.98740005 29.4734993 64.25759888
lradius  0.006620147731 -6.507048965e-006 30.35840034
lwrist  4.824992743e-007 -3.790274832e-007 -27.68289948
lhand  -3.522259407e-031 -36.98699951 -10.59319973
lfingers  90 7.125020027 -90
lthumb  94.8392868 -25.42742348 101.1545105
rclavicle  0 -4.497500157e-015 -2.743230041e-014
rhumerus  -56.13149643 -33.35480118 -54.96180344
rradius  -5.16745672e-007 2.214343908e-008 47.30699921
rwrist  -2.867388866e-005 0.1017204151 -156.5650024
rhand  -3.03566597e-031 -2.322849989 -7.412879944
rfingers  -90 -7.125020027 -90
rthumb  -86.41201019 -8.243016243 -66.37767029
rfemur  -11.61205292 15.79284668 12.74120045
rtibia  -0.407115519 -0.9995677471 19.01269722
rfoot  1.172590852 -21.64599419 -35.29542923
rtoes  4.076469421 19.60612297 -101.9962006
lfemur  -6.514025688 -16.21069145 -20.99240685
ltibia  4.048992157 -0.3865389526 12.05948448
lfoot  0.6425686479 -23.27433205 36.88234329
ltoes  -8.685216904 -18.08571053 -116.2003479
29
root  34.85277732 36.55476307 -14.44880118 9.236945152 -4.988164902 3.302812815
lowerback  -7.960219383 -0.7606825829 -0.6359016895
upperback  -3.943769932 -0.5160560012 -3.234999895
thorax  0.3625240028 -0.1076585427 -3.022239923
lowerneck  -7.077310085 -13.47399998 -10.49950027
upperneck  12.72060013 -18.34539795 10.45119953
head  6.985680103 -8.58479023 3.2355299
lclavicle  0 -4.497500157e-015 -2.743230041e-014
lhumerus  -47.98870087 29.4612999 64.27130127
lradius  0.006620147731 -6.507048965e-006 30.39039993
lwrist  4.824992743e-007 -3.790274832e-007 -27.6739006
lhand  -3.522214873e-031 -36.94179916 -10.60009956
lfingers  90 7.125020027 -90
lthumb  94.81964874 -25.43580246 101.1068497
rclavicle  0 -4.497500157e-015 -2.743230041e-014
rhumerus  -56.14920044 -32.67039871 -55.52899933
rradius  -5.16745672e-007 2.214343908e-008 48.8044014
rwrist  -2.867388866e-005 0.1017204151 -157.5780029
rhand  -3.033915194e-031 -2.254040003 -7.439350128
rfingers  -90 -7.125020027 -90
rthumb  -86.40977478 -8.222394943 -66.31215668
rfemur  -11.58569622 15.80919933 12.74553108
rtibia  -0.4058465362 -1.008799672 18.99131966
rfoot  1.166937232 -21.67211723 -35.33568192
rtoes  4.056153774 19.60632896 -101.9356384
lfemur  -6.489649773 -16.19287491 -20.99715042
ltibia  4.06414938 -0.3686808348 12.04395294
lfoot  0.6483505964 -23.31331635 36.86209106
ltoes  -8.652820587 -18.10082817 -116.0960388
30
root  34.85175005 36.55464893 -14.44493692 9.2265625 -4.957134724 3.321769953
lowerback  -7.947889328 -0.7611319423 -0.6197199225
upperback  -3.944250107 -0.5252659917 -3.241590023
thorax  0.3545039892 -0.1089039966 -3.038830042
lowerneck  -7.083320141 -13.50870037 -10.55270004
upperneck  12.6906004 -18.39330101 10.49940014
head  6.99214983 -8.607489586 3.251060009
lclavicle  0 -4.497500157e-015 -2.743230041e-014
lhumerus  -47.93519974 29.39850044 64.34169769
lradius  0.006620147731 -6.507048965e-006 30.39679909
lwrist  4.824992743e-007 -3.790274832e-007 -27.54129982
lhand  -3.523108897e-031 -36.98189926 -10.58370018
lfingers  90 7.125020027 -90
lthumb  94.83488464 -25.4183197 101.1482162
rclavicle  0 -4.497500157e-015 -2.743230041e-014
rhumerus  -56.20130157 -32.08499908 -56.00059509
rradius  -5.16745672e-007 2.214343908e-008 50.28659821
rwrist  -2.867388866e-005 0.1017204151 -158.7339935
rhand  -3.02833081e-031 -2.331619978 -7.522240162
rfingers  -90 -7.125020027 -90
rthumb  -86.457901 -8.142381668 -66.39250946
rfemur  -11.54716778 15.79401302 12.73151588
rtibia  -0.4052606225 -1.042058706 18.9715786
rfoot  1.156511307 -21.74187088 -35.3727417
rtoes  4.073592663 19.60650444 -101.9876251
lfemur  -6.463034153 -16.19313812 -21.03084946
ltibia  4.094673157 -0.3846759498 12.01571178
lfoot  0.6425678134 -23.27424049 36.81063843
ltoes  -8.694286346 -18.08146477 -116.2295685
31
root  34.85063568 36.55459487 -14.44390965 9.236971855 -4.952893257 3.327586651
lowerback  -7.975259304 -0.7607069612 -0.6144958138
upperback  -3.916399956 -0.5247399807 -3.255680084
thorax  0.3981690109 -0.1090859994 -3.056740046
lowerneck  -7.067080021 -13.5401001 -10.63160038
upperneck  12.6001997 -18.43850136 10.5958004
head  6.982500076 -8.629460335 3.287849903
lclavicle  0 -4.497500157e-015 -2.743230041e-014
lhumerus  -47.89899826 29.41909981 64.33799744
lradius  0.006620147731 -6.507048965e-006 30.39541435
lwrist  4.824992743e-007 -3.790274832e-007 -27.61420059
lhand  -3.527241064e-031 -36.95119858 -10.53829956
lfingers  90 7.125020027 -90
lthumb  94.81083679 -25.374897 101.1111679
rclavicle  0 -4.497500157e-015 -2.743230041e-014
rhumerus  -56.22760391 -31.52249908 -56.43029785
rradius  -5.16745672e-007 2.214343908e-008 51.70420074
rwrist  -2.867388866e-005 0.1017204151 -160.1380005
rhand  -3.03745187e-031 -2.314559937 -7.386290073
rfingers  -90 -7.125020027 -90
rthumb  -86.39967346 -8.267800331 -66.36799622
rfemur  -11.5421381 15.76435375 12.7140913
rtibia  -0.4050908685 -1.077117682 18.94554901
rfoot  1.14925015 -21.80322647 -35.3944397
rtoes  4.083997726 19.60665321 -102.0186462
lfemur  -6.479385376 -16.18664932 -21.03588104
ltibia  4.099713802 -0.3685052097 12.03001022
lfoot  0.6655239463 -23.32582855 36.82082748
ltoes  -8.736796379 -18.06149292 -116.3666077
32
root  34.84948526 36.55461289 -14.44317675 9.235974312 -4.951532364 3.338603258
lowerback  -7.977419376 -0.7754689455 -0.6163261533
upperback  -3.914190054 -0.5445669889 -3.250760078
thorax  0.4007650018 -0.1190730035 -3.052249908
lowerneck  -7.038400173 -13.56270027 -10.72000027
upperneck  12.51109982 -18.46689987 10.65950012
head  6.96694994 -8.647219658 3.318979979
lclavicle  0 -4.497500157e-015 -2.743230041e-014
lhumerus  -47.92200089 29.48600006 64.30780029
lradius  0.006620147731 -6.507048965e-006 30.3907547
lwrist  4.824992743e-007 -3.790274832e-007 -27.63940048
lhand  -3.526441704e-031 -36.97629929 -10.54440022
lfingers  90 7.125020027 -90
lthumb  94.82388306 -25.38002014 101.1386337
rclavicle  0 -4.497500157e-015 -2.743230041e-014
rhumerus  -56.27399826 -30.95379829 -56.84730148
rradius  -5.16745672e-007 2.214343908e-008 53.25439835
rwrist  -2.867388866e-005 0.1017204151 -161.2689972
rhand  -3.041662698e-031 -2.216109991 -7.323999882
rfingers  -90 -7.125020027 -90
rthumb  -86.35572815 -8.329972267 -66.26843262
rfemur  -11.5408926 15.72964382 12.70945072
rtibia  -0.4050703645 -1.083717346 18.95217705
rfoot  1.1636343 -21.80622292 -35.33823395
rtoes  4.056864262 19.60677147 -101.9377518
lfemur  -6.467673779 -16.16782379 -21.05225945
ltibia  4.119869232 -0.3611323535 12.00918674
lfoot  0.6812138557 -23.33884621 36.83069611
ltoes  -8.727834702 -18.06571388 -116.3377075
